# xmcd
#
# Track frame offsets: 
#        150
#        15692
#        27457
#        39242
#        52483
#        71686
#        85280
#        101164
#
# Disc length: 1524 seconds
#
# Revision: 0
# Processed by: cddbd v1.5.1PL2 Copyright (c) Steve Scherf et al.
# Submitted via: ExactAudioCopy v0.95b1
#
DISCID=6d05f208
DTITLE=Tim Barry - Laurel Street Demo
DYEAR=1900
DGENRE=Blues
TTITLE0=Idle Idylist
TTITLE1=Sorrow Floats
TTITLE2=Gumshoe Andy
TTITLE3=No News from North
TTITLE4=Ain't Right Sure
TTITLE5=Sagacity Gone
TTITLE6=Church of Level Track
TTITLE7=Carolina's RV
EXTD=
EXTT0=
EXTT1=
EXTT2=
EXTT3=
EXTT4=
EXTT5=
EXTT6=
EXTT7=
PLAYORDER=
